<?xml version="1.0" standalone="no"?>
<!DOCTYPE svg PUBLIC "-//W3C//DTD SVG 20010904//EN"
 "http://www.w3.org/TR/2001/REC-SVG-20010904/DTD/svg10.dtd">
<svg version="1.0" xmlns="http://www.w3.org/2000/svg"
 width="474.000000pt" height="474.000000pt" viewBox="0 0 474.000000 474.000000"
 preserveAspectRatio="xMidYMid meet">

<g transform="translate(0.000000,474.000000) scale(0.100000,-0.100000)"
fill="#000000" stroke="none">
<path d="M2140 4389 c-674 -78 -1265 -488 -1576 -1094 -143 -278 -210 -537
-221 -855 -20 -567 193 -1108 591 -1505 310 -308 699 -505 1141 -577 123 -20
495 -17 620 6 290 51 567 160 795 312 850 567 1151 1667 706 2579 -309 634
-908 1056 -1611 1135 -106 12 -338 11 -445 -1z m406 -40 c60 -5 163 -21 229
-34 654 -131 1206 -602 1451 -1237 19 -48 34 -92 34 -98 0 -6 -29 5 -63 25
-99 55 -156 45 -254 -45 -77 -70 -106 -84 -147 -70 -38 12 -78 53 -134 135
-50 76 -75 99 -136 126 -98 43 -207 8 -380 -124 -115 -87 -179 -113 -261 -104
-160 16 -255 121 -270 295 -14 160 -66 211 -223 219 -111 5 -128 9 -152 33
-28 28 -26 88 6 191 20 65 24 98 21 147 -7 87 -37 124 -149 179 -109 53 -138
86 -138 156 0 58 24 116 66 165 28 31 33 33 129 41 146 12 248 12 371 0z
m-556 -35 c0 -3 -9 -19 -20 -35 -27 -37 -45 -124 -36 -170 12 -66 45 -101 141
-151 119 -61 145 -91 145 -165 0 -31 -10 -88 -22 -127 -27 -89 -29 -173 -5
-209 32 -49 62 -61 178 -67 159 -10 184 -32 198 -176 10 -107 36 -173 94 -232
86 -89 207 -126 318 -98 71 19 101 36 214 122 123 94 156 108 245 109 99 0
102 -2 236 -183 53 -72 85 -92 146 -92 47 0 86 20 134 68 50 49 104 82 138 82
17 0 66 -17 108 -37 88 -43 84 -37 119 -216 28 -144 39 -333 28 -493 -8 -122
-34 -312 -44 -323 -2 -2 -25 15 -50 37 -75 66 -128 87 -215 87 -64 0 -83 -5
-121 -27 -54 -32 -72 -56 -106 -146 -34 -91 -65 -130 -132 -161 -55 -26 -58
-26 -252 -23 -191 3 -198 2 -250 -22 -66 -30 -91 -52 -114 -96 -29 -56 -21
-109 31 -211 42 -82 46 -95 41 -142 -4 -45 -10 -56 -49 -92 -35 -32 -68 -48
-163 -79 -202 -67 -253 -143 -190 -282 63 -138 -1 -250 -150 -262 -75 -6 -169
20 -284 77 -95 48 -120 57 -201 76 -76 17 -232 20 -316 4 -69 -13 -179 -54
-213 -81 -24 -18 -24 -18 -125 35 -361 192 -660 494 -843 853 -127 247 -194
495 -218 807 l-6 79 43 -7 c136 -21 186 -81 227 -272 37 -169 81 -247 158
-279 87 -37 151 -10 348 147 80 63 147 79 381 88 189 8 204 10 263 36 147 66
201 226 108 323 -30 32 -118 81 -197 112 -55 21 -120 69 -141 103 -25 42 -25
112 1 202 56 197 2 278 -237 359 -105 35 -157 59 -185 84 -16 13 -18 13 -24
-2 -3 -9 -4 -23 -1 -31 9 -21 96 -62 202 -96 118 -38 182 -79 207 -136 21 -47
19 -68 -13 -188 -24 -87 -24 -139 0 -190 34 -74 78 -106 244 -179 89 -40 131
-76 143 -123 11 -41 -15 -105 -60 -149 -60 -61 -112 -73 -351 -84 -257 -10
-278 -18 -439 -148 -92 -75 -128 -92 -190 -92 -36 0 -52 6 -80 30 -41 37 -58
77 -90 217 -28 122 -47 174 -82 220 -36 47 -106 85 -172 92 l-57 6 3 75 c14
388 160 790 400 1104 87 112 161 195 233 257 l59 51 35 -38 c67 -73 65 -128
-11 -239 -25 -37 -54 -85 -65 -108 -19 -43 -26 -137 -10 -137 5 0 15 -2 23 -5
10 -4 13 8 13 48 1 41 8 65 30 103 17 27 34 57 40 66 5 10 23 35 39 57 53 75
45 169 -22 243 -20 22 -31 42 -26 47 36 33 175 127 254 172 166 96 337 164
515 208 92 23 95 23 95 15z m2134 -2330 c31 -11 70 -37 109 -74 l61 -57 -43
-124 c-175 -500 -515 -891 -986 -1132 -486 -248 -1080 -281 -1599 -86 -31 11
-56 24 -56 28 0 9 35 26 110 53 40 15 90 22 185 25 152 6 209 -5 350 -69 206
-93 204 -92 300 -93 74 0 97 4 130 22 117 62 154 175 99 293 -39 83 -36 115
13 160 32 30 62 45 144 70 139 43 192 78 230 152 30 59 25 114 -20 204 -71
141 -73 170 -18 224 56 54 98 63 270 58 174 -6 249 3 317 37 62 32 91 67 130
162 43 106 55 122 103 144 52 23 109 24 171 3z"/>
<path d="M3100 2556 c-30 -7 -98 -34 -150 -59 -162 -78 -191 -81 -410 -32
-186 41 -310 -18 -310 -149 0 -27 13 -91 30 -143 17 -51 30 -107 30 -123 0
-75 -52 -133 -130 -146 -85 -13 -200 -71 -374 -187 -168 -112 -215 -173 -216
-275 0 -131 123 -238 253 -217 71 12 489 153 543 184 56 33 108 96 174 213 77
137 126 173 281 203 103 20 176 58 202 103 13 22 22 63 26 125 9 109 21 133
94 178 158 97 187 126 187 189 0 104 -104 165 -230 136z m124 -51 c41 -20 69
-66 60 -100 -8 -31 -45 -63 -132 -114 -119 -70 -152 -122 -152 -244 0 -115
-30 -143 -192 -177 -174 -36 -216 -67 -318 -240 -67 -114 -111 -165 -168 -194
-60 -30 -492 -166 -528 -166 -50 1 -115 30 -142 65 -37 46 -45 98 -27 160 13
48 24 61 83 109 145 117 340 226 448 251 173 40 214 137 145 342 -17 51 -31
105 -31 121 0 35 30 77 70 97 38 19 140 19 214 0 101 -26 190 -36 245 -25 28
5 104 34 169 64 156 72 195 80 256 51z"/>
</g>
</svg>
