<?xml version="1.0" standalone="no"?>
<!DOCTYPE svg PUBLIC "-//W3C//DTD SVG 20010904//EN"
 "http://www.w3.org/TR/2001/REC-SVG-20010904/DTD/svg10.dtd">
<svg version="1.0" xmlns="http://www.w3.org/2000/svg"
 width="1200.000000pt" height="1200.000000pt" viewBox="0 0 1200.000000 1200.000000"
 preserveAspectRatio="xMidYMid meet">

<g transform="translate(0.000000,1200.000000) scale(0.100000,-0.100000)"
fill="#000000" stroke="none">
<path d="M5863 9759 c-557 -52 -1042 -435 -1218 -962 -72 -215 -68 -152 -74
-1192 l-6 -940 -82 -3 -83 -3 0 53 c0 174 -173 239 -274 104 -20 -27 -21 -41
-24 -479 -4 -509 7 -726 43 -902 149 -731 716 -1307 1446 -1469 63 -14 147
-28 187 -32 l72 -7 0 -653 0 -654 -372 0 c-353 0 -374 -1 -414 -20 -156 -76
-129 -313 41 -359 27 -7 308 -11 895 -11 587 0 868 4 895 11 169 46 198 283
43 358 -43 20 -58 21 -416 21 l-372 0 0 654 0 653 73 7 c99 9 280 51 397 92
606 210 1061 708 1220 1333 50 199 54 270 55 868 0 554 0 562 -21 590 -100
135 -274 69 -274 -104 l0 -53 -85 0 -84 0 -4 943 c-3 1046 1 973 -73 1197
-162 487 -602 861 -1114 945 -116 19 -267 25 -377 14z m307 -234 c144 -22 233
-50 365 -115 145 -71 224 -130 341 -253 86 -90 90 -96 117 -183 59 -191 62
-221 62 -579 l0 -330 -372 -5 -371 -5 -27 -25 c-59 -55 -72 -131 -32 -191 45
-68 51 -69 450 -69 l357 0 0 -110 0 -110 -362 0 c-345 0 -365 -1 -396 -20 -88
-54 -96 -166 -17 -240 l27 -25 386 -6 c213 -3 388 -6 390 -7 1 -1 2 -15 2 -32
0 -21 15 -46 55 -91 62 -69 68 -89 28 -89 -18 0 -42 14 -71 43 -41 38 -44 40
-40 17 3 -14 9 -33 13 -42 7 -17 -14 -18 -360 -18 -318 0 -372 -2 -401 -16
-47 -22 -76 -67 -81 -123 -6 -63 20 -109 77 -138 43 -23 51 -23 397 -23 l353
0 0 -105 0 -105 -342 0 c-194 0 -358 -4 -378 -10 -20 -5 -51 -25 -70 -45 -27
-28 -34 -44 -38 -87 -3 -44 0 -59 20 -88 47 -69 51 -70 452 -70 l359 0 -6
-127 c-8 -195 -38 -326 -114 -497 -35 -82 -120 -220 -180 -292 l-33 -42 75
-72 c41 -41 75 -78 75 -84 0 -6 -36 25 -79 68 l-80 79 -52 -52 c-251 -252
-568 -381 -939 -381 -234 0 -301 20 -450 130 -192 143 -343 348 -420 570 -47
137 -61 233 -67 473 l-6 227 440 0 c440 0 440 0 473 23 51 34 72 68 72 119 1
57 -25 105 -72 133 -34 19 -51 20 -470 21 l-435 0 -3 107 -3 106 445 3 c434 3
445 3 473 24 42 32 66 80 65 132 0 48 -19 82 -66 116 -27 20 -41 21 -472 24
l-445 3 3 107 3 107 445 5 c404 5 448 7 473 23 80 52 79 182 -1 242 -26 19
-47 20 -472 25 l-445 5 -3 108 -3 107 439 0 c439 0 439 0 472 23 74 50 95 127
54 198 -41 69 -31 68 -519 71 l-440 3 1 200 c2 224 15 319 65 463 84 237 244
449 450 595 239 169 569 247 859 202z m-1600 -3453 c0 -393 24 -528 134 -758
314 -656 1044 -972 1736 -752 489 155 853 559 966 1073 14 64 19 146 23 404
l6 325 80 0 80 1 0 -380 c-1 -420 -6 -471 -76 -680 -307 -919 -1363 -1356
-2234 -923 -445 221 -746 612 -856 1113 -20 91 -22 135 -26 482 l-5 382 79 3
c43 2 81 2 86 0 4 -2 7 -132 7 -290z"/>
</g>
</svg>
